<?xml version="1.0" standalone="no"?>
<!DOCTYPE svg PUBLIC "-//W3C//DTD SVG 20010904//EN"
 "http://www.w3.org/TR/2001/REC-SVG-20010904/DTD/svg10.dtd">
<svg version="1.0" xmlns="http://www.w3.org/2000/svg"
 width="800.000000pt" height="800.000000pt" viewBox="0 0 800.000000 800.000000"
 preserveAspectRatio="xMidYMid meet">
<metadata>
Created by potrace 1.15, written by Peter Selinger 2001-2017
</metadata>
<g transform="translate(0.000000,800.000000) scale(0.100000,-0.100000)"
fill="#000000" stroke="none">
<path d="M1630 6707 c-24 -12 -25 -17 -28 -117 -4 -120 5 -155 55 -243 34 -59
128 -167 146 -167 5 0 27 -13 51 -29 l42 -29 87 31 c79 29 107 47 75 47 -29 0
-125 54 -167 93 -82 75 -123 135 -143 211 -11 40 -17 86 -14 106 8 50 -3 79
-35 95 -34 18 -37 18 -69 2z"/>
<path d="M6190 6707 c-23 -12 -25 -20 -31 -104 -6 -78 -12 -101 -43 -160 -36
-69 -60 -98 -129 -161 -35 -31 -129 -82 -154 -82 -29 0 -10 -17 35 -32 26 -9
63 -23 83 -31 36 -16 37 -16 85 16 27 17 58 36 69 42 35 18 122 137 149 201
48 117 56 263 17 297 -25 23 -54 28 -81 14z"/>
<path d="M1315 6535 c-22 -21 -25 -33 -25 -97 0 -89 11 -130 58 -228 49 -100
142 -194 235 -238 l68 -32 54 47 c30 25 52 49 50 53 -3 4 -17 11 -32 15 -27 6
-98 48 -118 69 -5 6 -27 24 -47 39 -21 15 -38 34 -38 41 0 8 -7 19 -16 27 -8
7 -27 35 -40 61 -20 40 -25 64 -25 134 0 77 -3 89 -24 110 -31 31 -69 31 -100
-1z"/>
<path d="M6474 6539 c-14 -15 -18 -34 -17 -68 5 -83 -26 -176 -85 -259 -20
-28 -153 -142 -165 -142 -3 0 -21 -7 -42 -16 -37 -15 -37 -15 -19 -36 11 -11
36 -33 56 -50 l37 -29 65 34 c68 36 176 124 176 143 0 6 9 19 21 30 50 45 89
173 89 290 0 71 -3 83 -23 102 -29 28 -68 28 -93 1z"/>
<path d="M1061 6374 c-22 -16 -23 -20 -19 -133 4 -113 5 -118 45 -195 41 -79
152 -206 179 -206 8 0 14 -4 14 -8 0 -12 99 -66 135 -73 17 -4 44 -10 62 -14
30 -7 33 -5 63 43 36 59 37 66 13 70 -43 9 -181 78 -216 108 -20 19 -42 34
-47 34 -6 0 -10 5 -10 11 0 6 -16 30 -35 54 -42 50 -65 129 -65 219 0 52 -4
66 -23 84 -28 26 -64 28 -96 6z"/>
<path d="M6735 6376 c-16 -11 -20 -29 -22 -97 -2 -73 -7 -93 -39 -158 -23 -46
-56 -92 -88 -123 -50 -49 -154 -109 -229 -132 -21 -7 -39 -15 -40 -18 -4 -13
58 -108 70 -108 72 -1 229 79 299 152 58 61 114 138 114 157 0 10 4 21 9 27
19 20 41 121 41 191 0 65 -3 77 -25 98 -27 28 -62 32 -90 11z"/>
<path d="M2135 5531 c-86 -39 -138 -121 -139 -216 -1 -130 104 -235 234 -235
150 0 265 144 230 289 -34 142 -195 222 -325 162z"/>
<path d="M5555 5529 c-59 -31 -85 -58 -111 -114 -57 -120 -6 -258 114 -312 46
-22 64 -25 119 -20 77 6 130 37 178 106 28 39 30 49 30 126 0 77 -2 87 -30
126 -17 24 -50 57 -73 74 -37 25 -54 30 -115 32 -58 3 -80 -1 -112 -18z"/>
<path d="M2871 4224 c-25 -21 -31 -33 -31 -65 0 -34 8 -48 48 -92 212 -232
422 -384 647 -470 448 -170 945 -35 1367 372 128 123 153 158 144 205 -4 18
-14 41 -24 50 -23 20 -75 31 -96 19 -8 -4 -68 -60 -133 -123 -146 -141 -261
-224 -418 -301 -151 -73 -252 -99 -415 -106 -155 -6 -274 16 -412 76 -167 73
-298 170 -480 353 -120 121 -141 130 -197 82z"/>
<path d="M3690 2944 c-14 -2 -65 -9 -115 -15 -142 -17 -295 -49 -335 -69 -111
-57 -200 -238 -213 -432 l-4 -58 904 0 903 0 0 40 c0 116 -61 286 -136 383
-61 79 -81 86 -339 128 -103 17 -184 22 -385 24 -140 2 -266 1 -280 -1z"/>
<path d="M3372 2210 l-364 -5 -28 -32 c-19 -21 -33 -54 -44 -101 -17 -77 -36
-261 -36 -361 l0 -64 158 6 c86 4 552 7 1036 7 l879 0 -6 203 c-5 213 -16 278
-58 331 l-20 26 -577 -2 c-317 -1 -740 -5 -940 -8z"/>
<path d="M3163 1483 l-213 -3 0 -53 c0 -163 96 -339 234 -431 60 -39 218 -96
336 -120 204 -41 552 -46 775 -11 128 19 400 92 442 116 107 65 185 233 208
447 l7 62 -789 -2 c-433 -2 -884 -4 -1000 -5z"/>
<path d="M4255 625 c-44 -8 -81 -14 -83 -14 -1 -1 -1 -119 0 -263 l3 -263 83
-3 82 -3 0 281 c0 154 -1 279 -2 279 -2 -1 -39 -7 -83 -14z"/>
<path d="M3550 356 l0 -276 85 0 85 0 0 264 c0 301 12 270 -102 281 l-68 7 0
-276z"/>
</g>
</svg>
